<svg xmlns="http://www.w3.org/2000/svg" width="120" height="13" fill="none"><path fill="#000" d="M6.304 1.163c-1.088 0-2.053.24-2.896.72A5.042 5.042 0 0 0 1.44 3.9C.97 4.763.736 5.745.736 6.843c0 1.1.235 2.086.704 2.96a5.151 5.151 0 0 0 1.968 2.032c.843.48 1.808.72 2.896.72 1.088 0 2.053-.24 2.896-.72a5.15 5.15 0 0 0 1.968-2.032c.47-.864.704-1.85.704-2.96 0-1.098-.235-2.08-.704-2.944A5.042 5.042 0 0 0 9.2 1.883c-.843-.48-1.808-.72-2.896-.72Zm0 .64c.992 0 1.856.214 2.592.64a4.195 4.195 0 0 1 1.696 1.776c.395.758.592 1.632.592 2.624 0 .982-.197 1.856-.592 2.624a4.37 4.37 0 0 1-1.712 1.808c-.736.427-1.595.64-2.576.64-.981 0-1.845-.213-2.592-.64a4.4 4.4 0 0 1-1.696-1.808c-.395-.768-.592-1.642-.592-2.624 0-.992.197-1.866.592-2.624.395-.768.96-1.36 1.696-1.776.736-.426 1.6-.64 2.592-.64Zm.064 1.376c.81 0 1.52.24 2.128.72.619.47 1.013 1.115 1.184 1.936H8.128c-.139-.437-.373-.778-.704-1.024a1.805 1.805 0 0 0-1.136-.384 1.84 1.84 0 0 0-1.424.64c-.373.416-.56 1.014-.56 1.792 0 .768.187 1.366.56 1.792a1.86 1.86 0 0 0 1.424.624c.427 0 .805-.122 1.136-.368.33-.245.565-.592.704-1.04H9.68c-.17.832-.565 1.488-1.184 1.968-.608.47-1.317.704-2.128.704a3.71 3.71 0 0 1-1.792-.432 3.243 3.243 0 0 1-1.264-1.28c-.31-.554-.464-1.216-.464-1.984 0-.757.155-1.413.464-1.968.31-.554.73-.976 1.264-1.264a3.71 3.71 0 0 1 1.792-.432Zm6.881 7.92c1.728-1.184 3.11-2.34 4.144-3.472 1.046-1.14 1.568-2.197 1.568-3.168 0-.576-.144-1.034-.432-1.376-.277-.34-.73-.512-1.36-.512-.65 0-1.141.214-1.472.64-.33.416-.517 1.014-.56 1.792h-1.776c.075-1.29.47-2.277 1.184-2.96.726-.682 1.648-1.024 2.768-1.024 1.099 0 1.958.294 2.576.88.63.576.944 1.376.944 2.4 0 .822-.256 1.654-.768 2.496a10.368 10.368 0 0 1-1.92 2.336 16.51 16.51 0 0 1-2.416 1.824h5.36v1.488h-7.84V11.1Zm9.27-4.304c0 1.803.32 3.216.96 4.24.64 1.014 1.707 1.52 3.2 1.52 1.494 0 2.56-.512 3.2-1.536.64-1.024.96-2.432.96-4.224 0-1.78-.32-3.178-.96-4.192-.64-1.024-1.706-1.536-3.2-1.536-1.493 0-2.56.507-3.2 1.52-.64 1.014-.96 2.416-.96 4.208Zm6.497 0c0 1.302-.16 2.3-.48 2.992-.32.694-.94 1.04-1.857 1.04-.927 0-1.551-.346-1.871-1.04-.32-.693-.48-1.69-.48-2.992 0-1.29.16-2.277.48-2.96.32-.682.944-1.024 1.872-1.024.917 0 1.535.347 1.855 1.04.32.683.48 1.664.48 2.944Zm3.28 4.304c1.728-1.184 3.11-2.34 4.144-3.472 1.046-1.14 1.568-2.197 1.568-3.168 0-.576-.144-1.034-.432-1.376-.277-.34-.73-.512-1.36-.512-.65 0-1.141.214-1.472.64-.33.416-.517 1.014-.56 1.792h-1.776c.075-1.29.47-2.277 1.184-2.96.726-.682 1.648-1.024 2.768-1.024 1.099 0 1.958.294 2.576.88.63.576.944 1.376.944 2.4 0 .822-.256 1.654-.768 2.496a10.368 10.368 0 0 1-1.92 2.336 16.51 16.51 0 0 1-2.416 1.824h5.36v1.488h-7.84V11.1Zm8.646-8.16V1.227h3.616v11.296h-1.92V2.94h-1.696Zm16.225-1.712V2.7h-4.848v3.504h4v1.408h-4v4.912h-1.824V1.227h6.672Zm1.368-.08c0-.309.107-.565.32-.768.214-.202.497-.304.849-.304s.634.102.847.304a.991.991 0 0 1 .337.768c0 .31-.112.56-.337.752-.213.192-.495.288-.848.288-.352 0-.634-.096-.848-.288a.964.964 0 0 1-.32-.752Zm2.08 2.56v8.816h-1.824V3.707h1.825Zm7.136-.144c1.024 0 1.845.331 2.464.992.618.662.928 1.606.928 2.832v5.136h-1.824V7.58c0-.789-.203-1.397-.608-1.824-.406-.437-.96-.656-1.664-.656-.726 0-1.307.235-1.744.704-.438.46-.656 1.136-.656 2.032v4.688h-1.824V3.707h1.824v1.936c.234-.66.63-1.173 1.184-1.536.554-.362 1.194-.544 1.92-.544Zm8.42.032c1.035 0 1.862.267 2.48.8.63.523 1.014 1.227 1.153 2.112h-1.728c-.075-.48-.283-.864-.624-1.152-.33-.298-.773-.448-1.328-.448-.459 0-.816.112-1.072.336-.246.214-.368.507-.368.88 0 .278.09.502.272.672.181.171.405.304.672.4.277.096.666.203 1.168.32.661.15 1.194.304 1.6.464.416.16.768.416 1.056.768.299.342.448.811.448 1.408 0 .736-.283 1.334-.848 1.792-.555.46-1.307.688-2.256.688-1.099 0-1.99-.256-2.672-.768-.672-.512-1.078-1.226-1.216-2.144h1.776c.053.48.267.87.64 1.168.373.3.864.448 1.472.448.437 0 .778-.112 1.024-.336.256-.234.384-.528.384-.88 0-.309-.096-.554-.288-.736a1.91 1.91 0 0 0-.72-.416 8.876 8.876 0 0 0-1.184-.32c-.64-.149-1.163-.298-1.568-.448a2.53 2.53 0 0 1-1.024-.72c-.278-.34-.416-.8-.416-1.376 0-.746.277-1.349.832-1.808.565-.469 1.344-.704 2.336-.704Zm17.91.112-2.448 8.816h-2.016l-2.176-6.816-2.208 6.816h-2l-2.448-8.816h1.84l1.68 7.136 2.208-7.136h1.92l2.24 7.136 1.68-7.136h1.728Zm9.434 3.984c0 .3-.022.56-.064.784h-6.784c.032.907.282 1.58.752 2.016.47.438 1.05.656 1.744.656.608 0 1.12-.154 1.536-.464.426-.309.688-.72.784-1.232h1.952a3.806 3.806 0 0 1-.736 1.648c-.374.48-.859.86-1.456 1.136-.598.267-1.264.4-2 .4-.854 0-1.61-.18-2.272-.544a3.883 3.883 0 0 1-1.536-1.568c-.374-.682-.56-1.488-.56-2.416 0-.917.186-1.717.56-2.4A3.883 3.883 0 0 1 96.97 4.14c.661-.362 1.418-.544 2.272-.544.864 0 1.616.182 2.256.544.65.352 1.146.843 1.488 1.472.352.62.528 1.312.528 2.08Zm-1.84-.048c.021-.576-.08-1.056-.304-1.44a1.952 1.952 0 0 0-.896-.864 2.656 2.656 0 0 0-1.232-.288c-.715 0-1.312.22-1.792.656-.48.438-.742 1.083-.784 1.936h5.008Zm11.793.048c0 .3-.021.56-.064.784h-6.784c.032.907.283 1.58.752 2.016.469.438 1.051.656 1.744.656.608 0 1.12-.154 1.536-.464.427-.309.688-.72.784-1.232h1.952a3.795 3.795 0 0 1-.736 1.648c-.373.48-.859.86-1.456 1.136-.597.267-1.264.4-2 .4-.853 0-1.611-.18-2.272-.544a3.879 3.879 0 0 1-1.536-1.568c-.373-.682-.56-1.488-.56-2.416 0-.917.187-1.717.56-2.4a3.88 3.88 0 0 1 1.536-1.568c.661-.362 1.419-.544 2.272-.544.864 0 1.616.182 2.256.544a3.595 3.595 0 0 1 1.488 1.472c.352.62.528 1.312.528 2.08Zm-1.84-.048c.021-.576-.08-1.056-.304-1.44a1.947 1.947 0 0 0-.896-.864 2.653 2.653 0 0 0-1.232-.288c-.715 0-1.312.22-1.792.656-.48.438-.741 1.083-.784 1.936h5.008Zm8.033 3.296v1.584h-1.12c-.939 0-1.653-.224-2.144-.672-.48-.458-.72-1.216-.72-2.272V5.26h-1.264V3.707h1.264V1.515h1.84v2.192h2.128V5.26h-2.128v4.352c0 .502.091.848.272 1.04.192.192.523.288.992.288h.88Z"/></svg>